# xmcd
#
# Track frame offsets:
#	150
#	27821
#	54134
#	80823
#	103032
#	131436
#	152032
#	179482
#	203213
#	230115
#
# Disc length: 3458 seconds
#
# Revision: 0
# Processed by: cddbd v1.5.1PL0 Copyright (c) Steve Scherf et al.
# Submitted via: dBpowerAMP V4.0
#
DISCID=810d800a
DTITLE=Papa Wemba - Foridoles
DYEAR=1900
DGENRE=Rumba
TTITLE0=Dixieme commandement
TTITLE1=Bravo Cathy
TTITLE2=Oldies are goodies
TTITLE3=Nzete ya Sequoia
TTITLE4=Foridoles
TTITLE5=Reference
TTITLE6=Aladji-Djambo
TTITLE7=Winamol
TTITLE8=Latin-Lovers
TTITLE9=Moyi
EXTD=Congolese rumba
EXTT0=
EXTT1=
EXTT2=
EXTT3=
EXTT4=
EXTT5=
EXTT6=
EXTT7=
EXTT8=
EXTT9=
PLAYORDER=
